<?xml version="1.0" encoding="UTF-8" standalone="no"?>
<!-- Created with Inkscape (http://www.inkscape.org/) -->

<svg
   xmlns:dc="http://purl.org/dc/elements/1.1/"
   xmlns:cc="http://creativecommons.org/ns#"
   xmlns:rdf="http://www.w3.org/1999/02/22-rdf-syntax-ns#"
   xmlns:svg="http://www.w3.org/2000/svg"
   xmlns="http://www.w3.org/2000/svg"
   xmlns:sodipodi="http://sodipodi.sourceforge.net/DTD/sodipodi-0.dtd"
   xmlns:inkscape="http://www.inkscape.org/namespaces/inkscape"
   version="1.1"
   id="svg2"
   xml:space="preserve"
   width="458.55798"
   height="281.0144"
   viewBox="0 0 458.55796 281.0144"
   sodipodi:docname="logo_recomind_white.svg"
   inkscape:version="0.92.4 (5da689c313, 2019-01-14)"
   inkscape:export-filename="C:\Users\migonza\Dropbox\recomind\pr\logo\logo_recomind_white_512x314.png"
   inkscape:export-xdpi="107.19"
   inkscape:export-ydpi="107.19"><metadata
     id="metadata8"><rdf:RDF><cc:Work
         rdf:about=""><dc:format>image/svg+xml</dc:format><dc:type
           rdf:resource="http://purl.org/dc/dcmitype/StillImage" /><dc:title></dc:title></cc:Work></rdf:RDF></metadata><defs
     id="defs6"><clipPath
       clipPathUnits="userSpaceOnUse"
       id="clipPath18"><path
         d="M 0,600 H 800 V 0 H 0 Z"
         id="path16"
         inkscape:connector-curvature="0" /></clipPath></defs><sodipodi:namedview
     pagecolor="#ffffff"
     bordercolor="#666666"
     borderopacity="1"
     objecttolerance="10"
     gridtolerance="10"
     guidetolerance="10"
     inkscape:pageopacity="0"
     inkscape:pageshadow="2"
     inkscape:window-width="3240"
     inkscape:window-height="2035"
     id="namedview4"
     showgrid="false"
     inkscape:zoom="1.18"
     inkscape:cx="8.3710125"
     inkscape:cy="103.05824"
     inkscape:window-x="-13"
     inkscape:window-y="-13"
     inkscape:window-maximized="1"
     inkscape:current-layer="g14"
     fit-margin-top="0"
     fit-margin-left="0"
     fit-margin-right="0"
     fit-margin-bottom="0" /><g
     id="g10"
     inkscape:groupmode="layer"
     inkscape:label="Logo"
     transform="matrix(1.3333333,0,0,-1.3333333,-304.05439,540.50707)"><g
       id="g12"><g
         id="g14"
         clip-path="url(#clipPath18)"><g
           id="g20"
           transform="translate(367.20468,403.1235)"
           style="fill:#ffffff"><path
             d="m 0,0 c 14.837,4.308 31.87,2.52 44.914,-5.981 11.031,3.973 22.825,6.368 34.588,5.448 8.192,-0.669 16.667,-3.283 22.533,-9.301 8.961,-8.799 8.715,-22.961 4.532,-33.992 -5.745,-15.303 -16.682,-28.153 -29.161,-38.468 -0.288,1.872 0.538,3.519 1.364,5.124 0.215,2.765 -2.122,5.228 -1.228,8.024 0.434,1.71 -0.382,3.529 0.068,5.176 6.827,8.192 13.148,17.336 15.48,27.918 2.164,8.171 -0.319,17.916 -7.816,22.501 -10.43,6.295 -23.406,4.831 -34.74,2.17 2.034,-2.803 3.989,-5.704 5.343,-8.909 -0.601,-0.178 -1.192,-0.35 -1.783,-0.538 -11.277,-3.906 -22.167,-8.909 -33.344,-13.107 5.275,9.928 11.198,19.506 16.411,29.465 C 30.223,-13.316 24.07,-22.768 17.216,-31.687 16.458,-20.776 15.998,-9.839 15.156,1.066 14.403,-9.839 13.88,-20.76 13.112,-31.666 6.263,-22.872 0.146,-13.514 -6.823,-4.825 c 5.134,-9.871 11.115,-19.307 16.422,-29.089 -11.235,4.402 -22.193,9.525 -33.481,13.771 10.389,-6.122 21.221,-11.481 31.661,-17.514 -13.342,-2.416 -26.757,-4.465 -40.146,-6.588 11.361,-0.099 22.674,1.49 34.024,1.94 -9.949,-7.079 -19.354,-14.942 -27.797,-23.782 -4.961,10.179 -7.863,21.754 -6.075,33.077 C -29.805,-16.594 -15.569,-3.979 0,0"
             style="fill:#ffffff;fill-opacity:1;fill-rule:nonzero;stroke:none"
             id="path22"
             inkscape:connector-curvature="0" /></g><g
           id="g24"
           transform="translate(340.75628,294.7157)"
           style="fill:#ffffff"><path
             d="m 0,0 c -2.123,-6.592 -2.75,-14.372 1.056,-20.488 3.9,-6.41 11.523,-9.437 18.727,-9.996 2.791,10.529 5.876,21.011 7.816,31.734 0.852,9.525 -6.886,16.546 -13.374,22.302 C 8.072,16.703 2.97,8.752 0,0 m 80.543,87.579 c 0.59,0.189 1.181,0.361 1.782,0.539 3.477,-6.164 4.653,-13.321 7.717,-19.621 4.679,-3.816 9.567,-7.486 14.074,-11.548 1.144,-1.046 1.955,-2.688 1.547,-4.256 -1.265,-2.98 -4.731,-4.454 -5.787,-7.513 1.218,-2.535 2.504,-5.656 0.58,-8.213 0.742,-1.145 1.825,-2.3 1.678,-3.774 -0.005,-1.773 -2.441,-2.918 -1.474,-4.784 1.526,-4.522 2.964,-10.822 -1.427,-14.231 C 92.53,10.059 83.209,11.57 77.458,5.651 73.877,2.028 75.775,-4.203 71.644,-7.356 60.551,-17.927 46.446,-24.556 32.346,-30.139 c 29.658,5.301 56.99,21.816 75.968,45.159 -8.47,-15.104 -21.817,-27.023 -36.178,-36.444 -14.22,-9.139 -30.291,-15.893 -47.188,-17.781 -10.179,-0.993 -21.137,-0.272 -30.045,5.223 -6.964,4.219 -11.58,11.915 -12.114,20.034 -0.862,10.743 3.278,21.173 8.726,30.223 10.859,17.853 27.928,30.74 44.971,42.284 -1.756,-8.909 -4.198,-17.681 -5.86,-26.605 3.638,9.912 7.125,19.887 10.759,29.804 0.115,-0.005 0.345,-0.01 0.46,-0.01 C 45.552,51.851 48.965,41.84 52.641,31.933 50.57,42.514 47.789,52.944 45.614,63.504 53.875,57.393 61.811,50.837 70.191,44.898 63.154,52.364 55.5,59.238 48.338,66.589 59.249,65.941 70.113,64.55 81.034,64.127 70.432,66.186 59.845,68.361 49.29,70.63 59.343,76.799 70.217,81.787 80.543,87.579"
             style="fill:#ffffff;fill-opacity:1;fill-rule:nonzero;stroke:none"
             id="path26"
             inkscape:connector-curvature="0" /></g><g
           id="g28"
           transform="translate(246.5488,237.1826)"
           style="fill:#ffffff"><path
             d="M 0,0 H -8.426 V -14.765 H 0 c 5.618,0 8.138,2.955 8.138,7.49 C 8.138,-2.809 5.618,0 0,0 m 0.36,8.355 c 12.1,0 18.149,-6.986 18.149,-15.413 0,-6.121 -3.384,-12.316 -11.451,-14.476 l 12.027,-20.38 H 7.418 l -11.09,19.588 H -8.426 V -41.914 H -18.508 V 8.355 Z"
             style="fill:#ffffff;fill-opacity:1;fill-rule:nonzero;stroke:none"
             id="path30"
             inkscape:connector-curvature="0" /></g><g
           id="g32"
           transform="translate(281.9149,218.9628)"
           style="fill:#ffffff"><path
             d="M 0,0 H 18.941 C 18.798,5.256 14.62,8.57 9.435,8.57 4.609,8.57 0.793,5.472 0,0 m 9.723,-24.343 c -11.595,0 -20.022,8.067 -20.022,20.597 0,12.604 8.211,20.597 20.022,20.597 11.523,0 19.661,-7.85 19.661,-19.734 0,-1.295 -0.072,-2.592 -0.288,-3.889 H -0.072 c 0.505,-5.904 4.538,-9.218 9.579,-9.218 4.321,0 6.698,2.162 7.994,4.826 H 28.376 C 26.215,-18.51 19.59,-24.343 9.723,-24.343"
             style="fill:#ffffff;fill-opacity:1;fill-rule:nonzero;stroke:none"
             id="path34"
             inkscape:connector-curvature="0" /></g><g
           id="g36"
           transform="translate(335.7903,235.814)"
           style="fill:#ffffff"><path
             d="M 0,0 C 9.939,0 16.636,-5.186 18.797,-14.116 H 7.921 c -1.151,3.386 -3.816,5.546 -7.994,5.546 -5.616,0 -9.361,-4.249 -9.361,-12.027 0,-7.778 3.745,-11.956 9.361,-11.956 4.178,0 6.77,1.874 7.994,5.475 H 18.797 C 16.636,-35.576 9.939,-41.194 0,-41.194 c -11.523,0 -19.734,8.066 -19.734,20.597 C -19.734,-8.067 -11.523,0 0,0"
             style="fill:#ffffff;fill-opacity:1;fill-rule:nonzero;stroke:none"
             id="path38"
             inkscape:connector-curvature="0" /></g><g
           id="g40"
           transform="translate(379.725,203.4065)"
           style="fill:#ffffff"><path
             d="m 0,0 c 5.329,0 10.443,3.889 10.443,11.81 0,7.995 -4.969,11.811 -10.299,11.811 -5.329,0 -10.154,-3.816 -10.154,-11.811 C -10.01,3.889 -5.401,0 0,0 m 0,-8.787 c -11.523,0 -20.237,8.067 -20.237,20.597 0,12.605 9.003,20.597 20.525,20.597 11.523,0 20.525,-7.992 20.525,-20.597 C 20.813,-0.72 11.595,-8.787 0,-8.787"
             style="fill:#ffffff;fill-opacity:1;fill-rule:nonzero;stroke:none"
             id="path42"
             inkscape:connector-curvature="0" /></g><g
           id="g44"
           transform="translate(408.5362,245.1039)"
           style="fill:#ffffff"><path
             d="M 0,0 H 7.058 L 25.495,-41.194 43.931,0 h 6.987 v -49.836 h -6.553 v 37.162 L 27.8,-49.836 H 23.191 L 6.554,-12.602 V -49.836 H 0 Z"
             style="fill:#ffffff;fill-opacity:1;fill-rule:nonzero;stroke:none"
             id="path46"
             inkscape:connector-curvature="0" /></g><path
           d="m 470.551,234.734 h 6.555 v -39.465 h -6.555 z m -1.08,10.875 c 0,2.521 1.945,4.464 4.466,4.464 2.377,0 4.32,-1.943 4.32,-4.464 0,-2.52 -1.943,-4.466 -4.32,-4.466 -2.521,0 -4.466,1.946 -4.466,4.466"
           style="fill:#ffffff;fill-opacity:1;fill-rule:nonzero;stroke:none"
           id="path48"
           inkscape:connector-curvature="0" /><g
           id="g50"
           transform="translate(517.1481,217.5941)"
           style="fill:#ffffff"><path
             d="m 0,0 c 0,8.064 -4.392,12.17 -11.019,12.17 -6.698,0 -11.307,-4.177 -11.307,-12.675 v -21.821 h -6.552 V 17.14 h 6.552 v -5.618 c 2.594,4.106 7.347,6.338 12.676,6.338 9.147,0 16.133,-5.618 16.133,-16.925 V -22.326 H 0 Z"
             style="fill:#ffffff;fill-opacity:1;fill-rule:nonzero;stroke:none"
             id="path52"
             inkscape:connector-curvature="0" /></g><g
           id="g54"
           transform="translate(551.9393,229.693)"
           style="fill:#ffffff"><path
             d="m 0,0 c -7.201,0 -13.324,-5.258 -13.324,-14.548 0,-9.29 6.123,-14.764 13.324,-14.764 7.201,0 13.396,5.401 13.396,14.693 C 13.396,-5.475 7.201,0 0,0 m -1.225,5.689 c 6.194,0 11.884,-3.169 14.621,-7.706 v 20.885 h 6.624 v -53.293 h -6.624 v 7.418 c -2.377,-4.394 -7.49,-8.066 -14.693,-8.066 -10.587,0 -18.725,8.281 -18.725,20.525 0,12.316 8.138,20.237 18.797,20.237"
             style="fill:#ffffff;fill-opacity:1;fill-rule:nonzero;stroke:none"
             id="path56"
             inkscape:connector-curvature="0" /></g></g></g></g></svg>