<?xml version="1.0" encoding="UTF-8" standalone="no"?>
<!-- Created with Inkscape (http://www.inkscape.org/) -->

<svg
   xmlns:dc="http://purl.org/dc/elements/1.1/"
   xmlns:cc="http://creativecommons.org/ns#"
   xmlns:rdf="http://www.w3.org/1999/02/22-rdf-syntax-ns#"
   xmlns:svg="http://www.w3.org/2000/svg"
   xmlns="http://www.w3.org/2000/svg"
   xmlns:sodipodi="http://sodipodi.sourceforge.net/DTD/sodipodi-0.dtd"
   xmlns:inkscape="http://www.inkscape.org/namespaces/inkscape"
   version="1.1"
   id="svg2"
   xml:space="preserve"
   width="458.55798"
   height="73.937996"
   viewBox="0 0 458.55796 73.937995"
   sodipodi:docname="logo_recomind_letters.svg"
   inkscape:version="0.92.4 (5da689c313, 2019-01-14)"
   inkscape:export-filename="C:\Users\migonza\Dropbox\recomind\pr\logo\logo_recomind_letters_512x83.png"
   inkscape:export-xdpi="107.19"
   inkscape:export-ydpi="107.19"><metadata
     id="metadata8"><rdf:RDF><cc:Work
         rdf:about=""><dc:format>image/svg+xml</dc:format><dc:type
           rdf:resource="http://purl.org/dc/dcmitype/StillImage" /><dc:title></dc:title></cc:Work></rdf:RDF></metadata><defs
     id="defs6"><clipPath
       clipPathUnits="userSpaceOnUse"
       id="clipPath18"><path
         d="M 0,600 H 800 V 0 H 0 Z"
         id="path16"
         inkscape:connector-curvature="0" /></clipPath></defs><sodipodi:namedview
     pagecolor="#ffffff"
     bordercolor="#666666"
     borderopacity="1"
     objecttolerance="10"
     gridtolerance="10"
     guidetolerance="10"
     inkscape:pageopacity="0"
     inkscape:pageshadow="2"
     inkscape:window-width="3240"
     inkscape:window-height="2035"
     id="namedview4"
     showgrid="false"
     inkscape:zoom="1.18"
     inkscape:cx="-199.25611"
     inkscape:cy="103.05825"
     inkscape:window-x="-13"
     inkscape:window-y="-13"
     inkscape:window-maximized="1"
     inkscape:current-layer="g14"
     fit-margin-top="0"
     fit-margin-left="0"
     fit-margin-right="0"
     fit-margin-bottom="0" /><g
     id="g10"
     inkscape:groupmode="layer"
     inkscape:label="Logo"
     transform="matrix(1.3333333,0,0,-1.3333333,-304.05439,333.43066)"><g
       id="g12"><g
         id="g14"
         clip-path="url(#clipPath18)"><g
           id="g28"
           transform="translate(246.5488,237.1826)"><path
             d="M 0,0 H -8.426 V -14.765 H 0 c 5.618,0 8.138,2.955 8.138,7.49 C 8.138,-2.809 5.618,0 0,0 m 0.36,8.355 c 12.1,0 18.149,-6.986 18.149,-15.413 0,-6.121 -3.384,-12.316 -11.451,-14.476 l 12.027,-20.38 H 7.418 l -11.09,19.588 H -8.426 V -41.914 H -18.508 V 8.355 Z"
             style="fill:#173f5f;fill-opacity:1;fill-rule:nonzero;stroke:none"
             id="path30"
             inkscape:connector-curvature="0" /></g><g
           id="g32"
           transform="translate(281.9149,218.9628)"><path
             d="M 0,0 H 18.941 C 18.798,5.256 14.62,8.57 9.435,8.57 4.609,8.57 0.793,5.472 0,0 m 9.723,-24.343 c -11.595,0 -20.022,8.067 -20.022,20.597 0,12.604 8.211,20.597 20.022,20.597 11.523,0 19.661,-7.85 19.661,-19.734 0,-1.295 -0.072,-2.592 -0.288,-3.889 H -0.072 c 0.505,-5.904 4.538,-9.218 9.579,-9.218 4.321,0 6.698,2.162 7.994,4.826 H 28.376 C 26.215,-18.51 19.59,-24.343 9.723,-24.343"
             style="fill:#173f5f;fill-opacity:1;fill-rule:nonzero;stroke:none"
             id="path34"
             inkscape:connector-curvature="0" /></g><g
           id="g36"
           transform="translate(335.7903,235.814)"><path
             d="M 0,0 C 9.939,0 16.636,-5.186 18.797,-14.116 H 7.921 c -1.151,3.386 -3.816,5.546 -7.994,5.546 -5.616,0 -9.361,-4.249 -9.361,-12.027 0,-7.778 3.745,-11.956 9.361,-11.956 4.178,0 6.77,1.874 7.994,5.475 H 18.797 C 16.636,-35.576 9.939,-41.194 0,-41.194 c -11.523,0 -19.734,8.066 -19.734,20.597 C -19.734,-8.067 -11.523,0 0,0"
             style="fill:#173f5f;fill-opacity:1;fill-rule:nonzero;stroke:none"
             id="path38"
             inkscape:connector-curvature="0" /></g><g
           id="g40"
           transform="translate(379.725,203.4065)"><path
             d="m 0,0 c 5.329,0 10.443,3.889 10.443,11.81 0,7.995 -4.969,11.811 -10.299,11.811 -5.329,0 -10.154,-3.816 -10.154,-11.811 C -10.01,3.889 -5.401,0 0,0 m 0,-8.787 c -11.523,0 -20.237,8.067 -20.237,20.597 0,12.605 9.003,20.597 20.525,20.597 11.523,0 20.525,-7.992 20.525,-20.597 C 20.813,-0.72 11.595,-8.787 0,-8.787"
             style="fill:#173f5f;fill-opacity:1;fill-rule:nonzero;stroke:none"
             id="path42"
             inkscape:connector-curvature="0" /></g><g
           id="g44"
           transform="translate(408.5362,245.1039)"><path
             d="M 0,0 H 7.058 L 25.495,-41.194 43.931,0 h 6.987 v -49.836 h -6.553 v 37.162 L 27.8,-49.836 H 23.191 L 6.554,-12.602 V -49.836 H 0 Z"
             style="fill:#287ef6;fill-opacity:1;fill-rule:nonzero;stroke:none"
             id="path46"
             inkscape:connector-curvature="0" /></g><path
           d="m 470.551,234.734 h 6.555 v -39.465 h -6.555 z m -1.08,10.875 c 0,2.521 1.945,4.464 4.466,4.464 2.377,0 4.32,-1.943 4.32,-4.464 0,-2.52 -1.943,-4.466 -4.32,-4.466 -2.521,0 -4.466,1.946 -4.466,4.466"
           style="fill:#287ef6;fill-opacity:1;fill-rule:nonzero;stroke:none"
           id="path48"
           inkscape:connector-curvature="0" /><g
           id="g50"
           transform="translate(517.1481,217.5941)"><path
             d="m 0,0 c 0,8.064 -4.392,12.17 -11.019,12.17 -6.698,0 -11.307,-4.177 -11.307,-12.675 v -21.821 h -6.552 V 17.14 h 6.552 v -5.618 c 2.594,4.106 7.347,6.338 12.676,6.338 9.147,0 16.133,-5.618 16.133,-16.925 V -22.326 H 0 Z"
             style="fill:#287ef6;fill-opacity:1;fill-rule:nonzero;stroke:none"
             id="path52"
             inkscape:connector-curvature="0" /></g><g
           id="g54"
           transform="translate(551.9393,229.693)"><path
             d="m 0,0 c -7.201,0 -13.324,-5.258 -13.324,-14.548 0,-9.29 6.123,-14.764 13.324,-14.764 7.201,0 13.396,5.401 13.396,14.693 C 13.396,-5.475 7.201,0 0,0 m -1.225,5.689 c 6.194,0 11.884,-3.169 14.621,-7.706 v 20.885 h 6.624 v -53.293 h -6.624 v 7.418 c -2.377,-4.394 -7.49,-8.066 -14.693,-8.066 -10.587,0 -18.725,8.281 -18.725,20.525 0,12.316 8.138,20.237 18.797,20.237"
             style="fill:#287ef6;fill-opacity:1;fill-rule:nonzero;stroke:none"
             id="path56"
             inkscape:connector-curvature="0" /></g></g></g></g></svg>